HIERARCHY
ROOT SimulationBone
{
	OFFSET 0.000000 0.000000 0.000000
	CHANNELS 6 Xposition Yposition Zposition Zrotation Yrotation Xrotation 
	JOINT Hips
	{
		OFFSET 0.000000 0.000000 0.000000
		CHANNELS 6 Xposition Yposition Zposition Zrotation Yrotation Xrotation 
		JOINT LeftUpLeg
		{
			OFFSET 0.103454 1.857828 10.548502
			CHANNELS 3 Zrotation Yrotation Xrotation
			JOINT LeftLeg
			{
				OFFSET 43.500000 -0.000023 -0.000008
				CHANNELS 3 Zrotation Yrotation Xrotation
				JOINT LeftFoot
				{
					OFFSET 42.372192 0.000008 0.000008
					CHANNELS 3 Zrotation Yrotation Xrotation
					JOINT LeftToe
					{
						OFFSET 17.299997 -0.000001 0.000000
						CHANNELS 3 Zrotation Yrotation Xrotation
						End Site
						{
							OFFSET 0.000000 0.000000 0.000000
						}
					}
				}
			}
		}
		JOINT RightUpLeg
		{
			OFFSET 0.103459 1.857828 -10.548505
			CHANNELS 3 Zrotation Yrotation Xrotation
			JOINT RightLeg
			{
				OFFSET 43.500046 -0.000027 0.000015
				CHANNELS 3 Zrotation Yrotation Xrotation
				JOINT RightFoot
				{
					OFFSET 42.372261 -0.000008 0.000019
					CHANNELS 3 Zrotation Yrotation Xrotation
					JOINT RightToe
					{
						OFFSET 17.299992 -0.000006 -0.000002
						CHANNELS 3 Zrotation Yrotation Xrotation
						End Site
						{
							OFFSET 0.000000 0.000000 0.000000
						}
					}
				}
			}
		}
		JOINT Spine
		{
			OFFSET 6.901967 -2.603729 0.000006
			CHANNELS 3 Zrotation Yrotation Xrotation
			JOINT Spine1
			{
				OFFSET 12.588098 -0.000001 -0.000005
				CHANNELS 3 Zrotation Yrotation Xrotation
				JOINT Spine2
				{
					OFFSET 12.343207 0.000001 -0.000003
					CHANNELS 3 Zrotation Yrotation Xrotation
					JOINT Neck
					{
						OFFSET 25.832897 -0.000006 -0.000001
						CHANNELS 3 Zrotation Yrotation Xrotation
						JOINT Head
						{
							OFFSET 11.766602 0.000010 0.000005
							CHANNELS 3 Zrotation Yrotation Xrotation
							End Site
							{
								OFFSET 0.000000 0.000000 0.000000
							}
						}
					}
					JOINT LeftShoulder
					{
						OFFSET 19.745901 -1.480368 6.000114
						CHANNELS 3 Zrotation Yrotation Xrotation
						JOINT LeftArm
						{
							OFFSET 11.284125 -0.000009 -0.000026
							CHANNELS 3 Zrotation Yrotation Xrotation
							JOINT LeftForeArm
							{
								OFFSET 33.000046 0.000005 0.000037
								CHANNELS 3 Zrotation Yrotation Xrotation
								JOINT LeftHand
								{
									OFFSET 25.200003 0.000016 -0.000001
									CHANNELS 3 Zrotation Yrotation Xrotation
									End Site
									{
										OFFSET 0.000000 0.000000 0.000000
									}
								}
							}
						}
					}
					JOINT RightShoulder
					{
						OFFSET 19.746088 -1.480377 -6.000074
						CHANNELS 3 Zrotation Yrotation Xrotation
						JOINT RightArm
						{
							OFFSET 11.284132 -0.000015 -0.000021
							CHANNELS 3 Zrotation Yrotation Xrotation
							JOINT RightForeArm
							{
								OFFSET 33.000107 0.000015 0.000018
								CHANNELS 3 Zrotation Yrotation Xrotation
								JOINT RightHand
								{
									OFFSET 25.199774 0.000138 0.000420
									CHANNELS 3 Zrotation Yrotation Xrotation
									End Site
									{
										OFFSET 0.000000 0.000000 0.000000
									}
								}
							}
						}
					}
				}
			}
		}
	}
}
MOTION
Frames: 5
Frame Time: 0.016667
-159.787004 0.000000 -574.977331 0.000000 -10.333770 0.000000 -7.802584 80.598997 -7.726177 79.364780 -14.518871 178.956859 165.404756 -5.683862 169.749768 -95.370816 4.555770 -6.042968 67.436628 -2.751763 -18.641554 21.454564 0.003108 0.000016 147.450544 -10.389303 -163.924672 -46.450397 -1.844383 6.482364 103.154872 -5.470552 -31.945602 21.454548 -0.003095 -0.000002 6.988474 -0.718847 -1.823080 3.986430 -1.375139 -3.669831 3.668937 -1.397397 -3.661478 4.640413 -10.014950 -19.293946 -39.876712 12.013929 -29.868539 166.152913 -76.936799 12.693941 -4.232067 55.430458 23.352750 -109.647923 -0.541968 3.259149 -10.628214 1.078122 10.597418 -114.208408 78.745450 68.343713 40.731591 -52.534320 -43.514230 -119.124906 -3.495764 -3.332592 -6.512701 5.188523 -14.307901 
-156.421596 0.000000 -575.123829 0.000000 -11.667861 0.000000 -8.228071 80.135658 -7.609557 79.000851 -13.551678 178.562053 160.352392 -7.382400 171.517757 -100.646299 4.469404 -6.148766 69.389796 -1.570156 -16.458256 21.454563 0.003106 0.000015 148.812281 -11.007996 -164.969928 -48.377262 -1.380230 6.773441 105.516805 -4.954034 -31.535413 21.454545 -0.003100 -0.000005 7.114553 -0.429721 -1.514602 4.227044 -0.804343 -3.043801 3.909406 -0.822839 -3.038898 4.093412 -11.056549 -19.077492 -40.576343 12.131028 -30.082990 171.088397 -75.686640 7.703880 -0.538088 55.077209 24.786482 -107.525010 -0.716839 3.178287 -10.232981 0.147874 10.304988 -117.660549 79.116199 64.826413 37.086618 -56.443923 -40.579143 -116.565291 -3.125402 -3.251305 -7.123982 5.136349 -17.329397 
-153.020884 0.000000 -575.127151 0.000000 -12.991605 0.000000 -8.566153 80.048004 -7.506529 78.618937 -12.965817 178.133891 154.989482 -8.232295 173.454630 -104.288538 4.348075 -6.622284 71.125277 -0.392100 -14.760577 21.454564 0.003104 0.000012 150.679939 -11.071216 -165.898329 -49.475053 -1.168052 6.415343 107.010089 -4.292300 -30.611514 21.454547 -0.003098 -0.000004 7.213176 -0.265107 -1.180119 4.418551 -0.485334 -2.369414 4.100748 -0.499769 -2.366447 3.781591 -11.825344 -18.922529 -41.241279 12.126732 -30.223933 174.557689 -74.819079 4.182297 3.497965 54.848387 26.441101 -105.714994 -0.896305 3.111462 -9.806127 -0.405191 10.502594 -121.290602 79.833511 61.105175 33.302366 -60.030535 -37.366911 -114.402860 -2.788849 -3.184120 -7.760897 5.119917 -20.442306 
-149.568419 0.000000 -574.981375 0.000000 -14.307207 0.000000 -8.819067 80.260696 -7.425322 78.300535 -12.695204 177.728979 149.692255 -8.371799 175.234063 -106.156411 4.224186 -7.460960 72.667754 0.856409 -13.444028 21.454565 0.003104 0.000010 153.159000 -10.645008 -166.721680 -49.630015 -1.172961 5.549944 107.808408 -3.522919 -29.468321 21.454551 -0.003094 -0.000001 7.290272 -0.214447 -0.817366 4.570565 -0.396685 -1.642489 4.252611 -0.406733 -1.640069 3.768040 -12.380882 -18.863647 -41.810189 12.117914 -30.384318 177.372062 -74.432850 1.309697 7.756300 54.590432 28.541251 -104.562409 -1.028792 3.069481 -9.481315 -0.623145 10.677874 -124.617943 80.790995 57.677431 29.857006 -62.994040 -34.431771 -113.015909 -2.587157 -3.138782 -8.359497 5.228882 -22.986691 
-146.056895 0.000000 -574.680530 0.000000 -15.616672 0.000000 -8.989847 80.681315 -7.369951 78.092959 -12.621583 177.421046 144.824596 -8.071728 176.575950 -106.208490 4.192420 -8.590008 74.168514 2.196444 -12.365283 21.454563 0.003106 0.000013 156.260434 -9.844654 -167.494248 -48.817578 -1.213651 4.396802 107.950313 -2.760559 -28.532052 21.454550 -0.003092 -0.000001 7.346986 -0.249598 -0.429446 4.682998 -0.481712 -0.868559 4.364932 -0.487084 -0.865638 4.066366 -12.801190 -18.920084 -42.211500 12.216033 -30.648891 -179.801682 -74.506487 -1.588359 12.032618 54.101438 31.195439 -104.304004 -1.070377 3.060433 -9.366680 -0.623215 10.303767 -126.960704 81.870042 55.242130 27.365845 -65.112829 -32.507849 -112.661942 -2.601907 -3.121508 -8.855880 5.555400 -24.341059 
